<?xml version="1.0" encoding="utf-8"?><svg width="91" height="61" viewBox="0 0 91 61" fill="none" xmlns="http://www.w3.org/2000/svg">
<path d="M71.7626 58.5699V54.5607L70.0683 57.1589H70.0326L68.3236 54.5882V58.572H67.0508V52.4168H68.4767L70.0704 54.9959L71.664 52.4168H73.0375V58.572H71.7647L71.7626 58.5699ZM76.6505 58.6396C75.0212 58.6396 74.0545 57.725 74.0545 55.9337V52.4147H75.3295V55.8957C75.3295 56.8906 75.8558 57.4018 76.6673 57.4018C77.4788 57.4018 78.0031 56.9096 78.0031 55.938V52.4126H79.2759V55.8852C79.2759 57.7334 78.2757 58.6375 76.6484 58.6375L76.6505 58.6396ZM81.572 53.6968V54.979H84.2456V56.2611H81.572V58.5699H80.2971V52.4147H85.011V53.6968H81.572ZM88.429 58.648C86.5418 58.648 85.2647 57.3131 85.2647 55.5113V55.4944C85.2647 53.7623 86.5858 52.3386 88.4227 52.3386C89.5131 52.3386 90.1611 52.6343 90.7923 53.1814L89.9472 54.1953C89.4817 53.8067 89.0854 53.5764 88.385 53.5764C87.412 53.5764 86.6655 54.4404 86.6655 55.4775V55.4944C86.6655 56.6139 87.4078 57.4292 88.4835 57.4292C88.9721 57.4292 89.3391 57.3067 89.7249 57.0638V56.2633H88.3221V54.9811H90.9978V57.6827C90.3603 58.215 89.5404 58.6501 88.4311 58.6501L88.429 58.648Z" fill="#414242" />
<path d="M60.2293 50.877C59.5624 50.877 58.9313 51.0206 58.3588 51.2783C57.7863 51.0185 57.1531 50.877 56.4883 50.877C53.9573 50.877 51.9023 52.9428 51.9023 55.4923C51.9023 58.0418 53.9552 60.1098 56.4883 60.1098C57.1552 60.1098 57.7863 59.964 58.3588 59.7084C58.9313 59.964 59.5624 60.1098 60.2293 60.1098C62.7624 60.1098 64.8132 58.0418 64.8132 55.4923C64.8132 52.9428 62.7603 50.877 60.2293 50.877ZM58.3588 59.6662C56.0689 59.6662 54.2132 57.7968 54.2132 55.4944C54.2132 53.192 56.0689 51.3226 58.3588 51.3226C60.6487 51.3226 62.5044 53.1878 62.5044 55.4944C62.5044 57.801 60.6487 59.6662 58.3588 59.6662ZM60.267 55.4944C60.267 56.5548 59.4136 57.4145 58.3588 57.4145C57.304 57.4145 56.4506 56.5548 56.4506 55.4944C56.4506 54.434 57.304 53.5743 58.3588 53.5743C59.4136 53.5743 60.267 54.434 60.267 55.4944Z" fill="#DB2429" />
<path d="M1.9124 52.6238H3.30686L5.1941 58.384H4.08902L3.63189 56.9582H1.44898L1.00024 58.384H0L1.9124 52.6238ZM1.69852 56.1745H3.38445L2.54568 53.5004L1.69642 56.1745H1.69852Z" fill="#414242" />
<path d="M7.89062 54.1678H8.85941V54.8142C9.05862 54.4192 9.51575 54.0791 10.1322 54.0791C10.6754 54.0791 11.1073 54.3136 11.3149 54.8374C11.6357 54.3136 12.2103 54.0791 12.7324 54.0791C13.4999 54.0791 14.1227 54.5544 14.1227 55.7161V58.3818H13.156V55.7795C13.156 55.1585 12.8918 54.8923 12.4116 54.8923C11.9314 54.8923 11.4932 55.2155 11.4932 55.8598V58.3818H10.5244V55.7795C10.5244 55.1585 10.2518 54.8923 9.77996 54.8923C9.30815 54.8923 8.85941 55.2155 8.85941 55.8598V58.3818H7.89062V54.1678Z" fill="#414242" />
<path d="M14.957 56.3198V56.2543C14.957 54.9489 15.8461 54.0786 17.0372 54.0786C18.0773 54.0786 19.0146 54.6996 19.0146 56.2057V56.4887H15.951C15.9824 57.2872 16.3829 57.7371 17.1022 57.7371C17.6851 57.7371 17.9913 57.5048 18.0626 57.0929H18.9999C18.8636 57.98 18.1507 58.4637 17.0791 58.4637C15.8482 58.4637 14.9591 57.6484 14.9591 56.3198H14.957ZM18.0542 55.836C18.006 55.1115 17.6369 54.7883 17.0372 54.7883C16.4375 54.7883 16.0621 55.1833 15.9657 55.836H18.0542Z" fill="#414242" />
<path d="M19.8753 54.1678H20.842V54.8142C21.0433 54.4192 21.4983 54.0791 22.1127 54.0791C22.6579 54.0791 23.0899 54.3136 23.2975 54.8374C23.6183 54.3136 24.195 54.0791 24.7129 54.0791C25.4804 54.0791 26.1053 54.5544 26.1053 55.7161V58.3818H25.1365V55.7795C25.1365 55.1585 24.8723 54.8923 24.3921 54.8923C23.9119 54.8923 23.4715 55.2155 23.4715 55.8598V58.3818H22.5027V55.7795C22.5027 55.1585 22.2301 54.8923 21.7583 54.8923C21.2865 54.8923 20.8378 55.2155 20.8378 55.8598V58.3818H19.8711V54.1678H19.8753Z" fill="#414242" />
<path d="M28.1895 57.7061V58.3841H27.2207V52.2205H28.1895V54.846C28.4201 54.4447 28.9402 54.0793 29.5567 54.0793C30.6031 54.0793 31.4125 54.8608 31.4125 56.2232V56.2887C31.4125 57.6406 30.6345 58.4623 29.5567 58.4623C28.8941 58.4623 28.4118 58.1328 28.1895 57.704V57.7061ZM30.4227 56.3056V56.2423C30.4227 55.3086 29.9425 54.8481 29.3092 54.8481C28.6361 54.8481 28.158 55.3086 28.158 56.2423V56.3056C28.158 57.2498 28.6152 57.6913 29.3176 57.6913C30.0201 57.6913 30.4227 57.2076 30.4227 56.3056Z" fill="#414242" />
<path d="M32.0078 56.3202V56.2548C32.0078 54.9494 32.8969 54.0791 34.0901 54.0791C35.1301 54.0791 36.0654 54.7001 36.0654 56.2062V56.4892H32.9997C33.0311 57.2877 33.4316 57.7376 34.1509 57.7376C34.7359 57.7376 35.04 57.5052 35.1113 57.0933H36.0486C35.9123 57.9805 35.1993 58.4642 34.1278 58.4642C32.8969 58.4642 32.0078 57.6489 32.0078 56.3202ZM35.105 55.8365C35.0568 55.112 34.6877 54.7888 34.0901 54.7888C33.4924 54.7888 33.1129 55.1838 33.0185 55.8365H35.1071H35.105Z" fill="#414242" />
<path d="M36.9297 54.1679H37.8985V54.9579C38.1627 54.4277 38.5548 54.1129 39.2594 54.1045V55.0128C38.4101 55.0212 37.8985 55.2958 37.8985 56.1914V58.3819H36.9297V54.1679Z" fill="#414242" />
<path d="M41.7266 56.3202V56.2548C41.7266 54.9494 42.645 54.0791 43.878 54.0791C45.111 54.0791 46.0232 54.943 46.0232 56.2294V56.2949C46.0232 57.6066 45.1026 58.4621 43.8717 58.4621C42.6408 58.4621 41.7266 57.5982 41.7266 56.3181V56.3202ZM45.0313 56.3033V56.2484C45.0313 55.3782 44.5973 54.8459 43.878 54.8459C43.1588 54.8459 42.7184 55.3697 42.7184 56.24V56.3033C42.7184 57.1652 43.142 57.7038 43.878 57.7038C44.614 57.7038 45.0313 57.1652 45.0313 56.3033Z" fill="#414242" />
<path d="M47.0624 54.901H46.4941V54.168H47.0624V53.604C47.0624 52.6767 47.5741 52.1782 48.4715 52.1782C48.7043 52.1782 48.8469 52.2036 49.023 52.2585V53.0168C48.9119 52.9767 48.7588 52.945 48.5827 52.945C48.1906 52.945 48.0312 53.2027 48.0312 53.566V54.168H48.9832V54.901H48.0312V58.382H47.0624V54.901Z" fill="#414242" />
<path d="M50.5654 23.0852H53.7318V24.3948C54.3399 23.8519 55.4093 22.8613 57.3155 22.8613C59.4837 22.8613 60.0939 24.173 60.2407 24.5954C61.5324 23.3407 62.39 22.8613 63.6314 22.8613C64.2332 22.8613 64.6526 22.9563 65.0573 23.1105C66.7579 23.7695 66.7999 25.2946 66.825 26.2789V34.3225H63.6105V26.9992C63.5874 26.2092 63.5685 25.7593 63.3609 25.4023C63.319 25.3115 63.0065 24.7517 62.2076 24.7517C61.9371 24.7517 61.4192 24.8172 61.1738 24.9545C60.2952 25.3854 60.2616 26.11 60.2407 26.7225V34.3225H57.1037V27.0457C57.1037 26.186 57.1183 24.7539 55.6798 24.7539C55.3611 24.7539 54.8012 24.8489 54.5202 25.0031C53.7318 25.4974 53.7129 26.2113 53.7318 27.2062V34.3246H50.5654V23.0873V23.0852ZM36.3063 26.45C36.2832 25.6347 36.2832 24.6039 35.5745 23.8097C35.262 23.4569 34.5344 22.876 33.033 22.876C31.2569 22.876 30.5418 23.6555 29.7366 24.3779V23.0957H26.5744V34.331H29.7366V26.7394C29.7618 26.1311 29.7869 25.3685 30.7222 24.9355C30.9151 24.8553 31.2275 24.7623 31.5819 24.7623C32.9701 24.7623 33.0812 25.9304 33.1043 26.2916C33.1525 26.6613 33.1525 27.0246 33.1525 27.4703V34.331H36.3063V26.45ZM90.9985 26.45C90.967 25.6347 90.967 24.6039 90.2667 23.8097C89.9605 23.4569 89.214 22.876 87.7273 22.876C85.9554 22.876 85.2361 23.6555 84.433 24.3779V23.0957H81.2645V34.331H84.433V26.7394C84.4623 26.1311 84.4833 25.3685 85.4102 24.9355C85.6115 24.8553 85.9155 24.7623 86.2804 24.7623C87.6581 24.7623 87.7692 25.9304 87.7965 26.2916C87.8342 26.6613 87.8342 27.0246 87.8342 27.4703V34.331H90.9964V26.45H90.9985ZM78.3058 24.3948C79.4045 25.6706 79.4045 27.5357 79.4045 28.5243C79.4045 29.5635 79.4045 31.6505 78.1569 33.0404C76.754 34.614 74.8668 34.614 74.1077 34.614C73.3025 34.614 72.8684 34.5697 72.0695 34.3225C69.312 33.5156 68.815 31.1879 68.815 28.9911C68.815 27.8378 68.815 25.5565 70.4171 24.1181C71.8241 22.8359 73.6191 22.8021 74.3992 22.8021C75.0681 22.8021 76.97 22.8021 78.3058 24.3948ZM76.0872 30.3388C76.1522 29.7156 76.1795 29.1115 76.1795 28.4652C76.1795 27.9836 76.1501 27.4914 76.1124 26.9971C76.0662 26.3043 75.9111 24.5046 74.2042 24.5046C73.8561 24.5046 73.5583 24.5743 73.2417 24.7306C72.3316 25.2714 72.1995 26.4099 72.1429 26.9971C72.0716 27.7364 72.0401 28.3595 72.0401 28.8095C72.0401 29.3101 72.0716 29.8234 72.1135 30.3366C72.1471 31.0252 72.3127 32.9263 74.1098 32.9263C74.4013 32.9263 74.6927 32.8524 74.9653 32.7256C75.9111 32.1976 76.0159 30.9555 76.0872 30.3366M47.29 23.7231C48.263 24.5807 48.2462 25.7868 48.2462 26.6613V34.3268H45.2266L45.2057 33.598C45.2057 33.598 44.1362 34.6204 41.8862 34.6204C40.9741 34.6204 40.0179 34.3627 39.4097 33.6614C38.961 33.1798 38.6297 32.3475 38.6297 31.2428C38.6297 30.7971 38.6591 29.4474 39.9906 28.5201C40.8399 27.9624 41.5696 27.785 43.5323 27.5526L45.3399 27.3773V26.4838C45.3399 25.9473 45.3252 25.4742 45.1218 25.1108C44.7422 24.494 44.0083 24.494 43.7525 24.494C42.9682 24.494 42.5468 24.851 42.3769 25.0939C42.0141 25.5396 41.9911 26.1628 41.9722 26.6211H39.2001C39.2001 26.0994 39.1728 25.4129 39.5544 24.737C40.4331 23.1527 41.9722 22.7979 44.0188 22.7979C44.6961 22.7979 44.9331 22.8465 45.623 22.9711C46.315 23.0746 46.77 23.271 47.2858 23.7231M45.3378 28.8369C44.2474 28.932 43.9496 28.951 43.4883 29.0629C42.616 29.2699 41.8443 29.7705 41.8443 30.9555C41.8443 31.1921 41.8632 31.4414 41.9261 31.6991C42.163 32.4785 42.7271 32.7087 43.352 32.7087C43.6246 32.7087 44.2914 32.6749 44.7527 32.2525C45.3252 31.7413 45.3399 31.0126 45.3399 30.4845V28.8369H45.3378ZM23.4605 23.7231C24.4439 24.5807 24.4209 25.7868 24.4209 26.6613V34.3268H21.3971L21.374 33.598C21.374 33.598 20.3109 34.6204 18.0588 34.6204C17.1424 34.6204 16.1925 34.3627 15.5928 33.6614C15.1399 33.1798 14.8085 32.3475 14.8085 31.2428C14.8085 30.7971 14.819 29.4474 16.1715 28.5201C17.0103 27.9624 17.7526 27.785 19.7091 27.5526L21.5166 27.3773V26.4838C21.5166 25.9473 21.4936 25.4742 21.2902 25.1108C20.9211 24.494 20.1788 24.494 19.923 24.494C19.145 24.494 18.7298 24.851 18.5516 25.0939C18.1951 25.5396 18.1762 26.1628 18.1469 26.6211H15.3747C15.3747 26.0994 15.3516 25.4129 15.7291 24.737C16.6077 23.1527 18.1469 22.7979 20.1935 22.7979C20.8666 22.7979 21.1119 22.8465 21.806 22.9711C22.4938 23.0746 22.9509 23.271 23.4605 23.7231ZM21.5166 28.8369C20.422 28.932 20.1222 28.951 19.665 29.0629C18.8011 29.2699 18.0147 29.7705 18.0147 30.9555C18.0147 31.1921 18.0378 31.4414 18.1028 31.6991C18.3461 32.4785 18.908 32.7087 19.5371 32.7087C19.7929 32.7087 20.4619 32.6749 20.9337 32.2525C21.4915 31.7413 21.5145 31.0126 21.5145 30.4845V28.8369H21.5166ZM10.751 20.3687C12.2503 22.0227 12.7179 24.7285 12.7179 26.3423C12.7179 32.4468 10.4931 34.6753 5.52751 34.6753H0V18.4656H5.52961C7.22184 18.4656 9.21392 18.6853 10.7531 20.3666M8.98745 28.9214C9.14682 28.0237 9.14053 27.1576 9.14053 26.2747C9.14053 23.835 8.4779 22.3205 7.88237 21.6361C7.03101 20.6455 6.25725 20.5715 5.29475 20.5715H3.6235V32.5651C3.6235 32.5651 3.39493 32.5883 4.38469 32.5883C8.07738 32.5883 8.72114 30.3366 8.98955 28.9235" fill="#004D43" />
<path d="M0 0V6.57344H14.8316V3.05226L0 0Z" fill="#F15A22" />
<path d="M31.7041 6.57344L14.8301 0L14.8322 3.06493L31.7041 6.57344Z" fill="#FFC629" />
<path d="M14.832 6.57343H31.6998L14.832 3.05225V6.57343Z" fill="#FFA400" />
<path d="M70.4559 14.8388L31.7402 6.57764L70.4559 19.5598V14.8388Z" fill="#FFC629" />
<path d="M31.7109 6.57764L70.435 6.59876V14.8388L31.7109 6.57764Z" fill="#F15A22" />
<path d="M70.4375 6.59888V14.8389L91 19.562L90.9916 6.59888H70.4375Z" fill="#FFA400" />
</svg>